<?xml version="1.0" encoding="UTF-8"?>
<svg id="Capa_1" data-name="Capa 1" xmlns="http://www.w3.org/2000/svg" viewBox="0 0 2638.93 495.71">
  <defs>
    <style>
      .cls-2 {
        fill: #f5bc42;
        stroke-width: 0px;
      }
    </style>
  </defs>
  <path class="cls-2" d="M713.29,194.65c-1.31,16.88-3.89,34.01-9.65,49.91-10.06,27.91-25.85,52.11-47.86,72.14-25.31,23.03-55.04,36.83-88.75,41.97-11.76,1.79-23.61,3.06-35.47,4-12.65,1.01-25.3.06-37.83-1.96-10.81-1.74-21.19-4.99-31.43-8.8-18.15-6.76-35.06-15.8-50.36-27.68-9.24-7.18-17.17-15.54-21.37-26.81-.12-.33-.49-.58-.85-.97-.31.36-.61.56-.71.83-3.33,9.18-9.29,16.49-16.51,22.83-13.98,12.27-30.01,21.19-46.99,28.55-21.74,9.42-44.39,14.86-68.14,14.25-12.71-.33-25.43-1.64-38.05-3.22-15.47-1.94-30.6-5.47-45.14-11.36-20.42-8.27-38.58-19.95-54.34-35.29-17.78-17.3-31.36-37.48-40.8-60.46-3.96-9.64-6.95-19.67-8.91-29.9-1.14-5.93-1.85-11.87-2.51-17.85-.48-4.37-1.15-8.74-1.3-13.14-.07-2.08-.27-4.38.6-6.32.19-.41.43-.82.8-1.08.98-.71,2.38-.2,3.36.52,3.01,2.23,3.72,5.75,4.58,9.17,3.28,13.09,9.5,24.34,19.61,33.53,13.4,12.19,29.11,16,46.55,13.44,13.11-1.92,25.02-7.41,36.31-14.15,17.88-10.66,33.7-24.11,49.79-37.19,11.82-9.62,23.62-19.29,36.94-26.86,17.39-9.87,35.67-16.14,56.04-12.96,10.53,1.64,20.59,4.83,29.45,11.03,14.29,10.01,26.36,22.42,38,35.28.43.48.64,1.16.88,1.6.86-.47,1.12-.55,1.28-.71,5.89-6.12,11.69-12.32,17.66-18.35,7.64-7.71,15.6-15.15,25.19-20.35,21.61-11.72,43.88-12.1,66.48-2.89,15.68,6.39,29.22,16.2,42.39,26.61,15.15,11.98,30.14,24.19,45.57,35.8,13.52,10.17,28.31,18.19,44.95,22.17,10.64,2.54,21.35,2.64,31.81-.85,15.6-5.21,26.76-15.74,33.87-30.31,3.11-6.38,4.8-13.44,7.16-20.19.71-2.03,1.76-4.53,4.29-4.39,3.16.17,4.01,2.1,3.82,5-.11,1.8-.24,3.6-.38,5.41Z"/>
  <g>
    <path class="cls-2" d="M836.67,180.8c0-2.89-1.12-4.74-3.36-5.53-2.24-.79-5.33-1.31-9.28-1.58v-4.74h118.86c11.85,0,21.98.59,30.41,1.78,8.42,1.18,15.26,3.36,20.53,6.52,5.26,3.16,9.14,7.57,11.65,13.23,2.5,5.66,3.75,12.83,3.75,21.52s-2.57,15.99-7.7,22.71c-5.13,6.71-11.25,11.79-18.36,15.2,10.66,3.42,18.72,8.36,24.19,14.81,5.46,6.45,8.19,15.6,8.19,27.44,0,15.54-5.54,27.84-16.62,36.92-11.08,9.08-29.15,13.62-54.22,13.62h-120.68v-4.74c3.95-.26,7.04-.79,9.28-1.58,2.23-.79,3.36-2.63,3.36-5.53v-150.06ZM936.58,240.03c10.27,0,17.18-1.84,20.73-5.53,3.55-3.68,5.33-8.16,5.33-13.43,0-7.9-2.17-13.03-6.52-15.4s-10.86-3.55-19.55-3.55h-46.99v37.91h46.99ZM932.63,309.53c9.21,0,16.98-1.58,23.3-4.74,6.32-3.16,9.48-8.69,9.48-16.58,0-5.26-.99-9.34-2.96-12.24-1.97-2.89-4.54-5-7.7-6.32-3.16-1.31-6.65-2.1-10.46-2.37-3.82-.26-7.7-.39-11.65-.39h-43.04v42.65h43.04Z"/>
    <path class="cls-2" d="M1215.75,337.96c.79,0,1.84-.13,3.16-.4,1.31-.26,1.97-1.31,1.97-3.16,0-1.05-.46-2.7-1.38-4.94-.93-2.23-1.97-4.67-3.16-7.31-1.18-2.63-2.44-5.26-3.75-7.9-1.32-2.63-2.37-4.87-3.16-6.71h-91.61c-.53,1.84-1.38,4.08-2.57,6.71-1.18,2.63-2.44,5.27-3.75,7.9-1.32,2.63-2.51,5.07-3.55,7.31-1.05,2.24-1.58,3.89-1.58,4.94,0,1.85.65,2.9,1.97,3.16,1.31.27,2.37.4,3.16.4v4.74h-59.23v-4.74c1.58,0,3.16-.33,4.74-.99,1.58-.65,2.63-1.64,3.16-2.96,7.9-18.42,15.92-36.66,24.09-54.69,8.16-18.03,15.46-34.35,21.92-48.97,6.45-14.61,11.78-26.72,15.99-36.33,4.21-9.61,6.32-15.07,6.32-16.39,0-2.37-1.71-3.68-5.13-3.95v-4.74h82.53v4.74c-3.42.26-5.13,1.58-5.13,3.95,0,.79,1.38,4.28,4.15,10.46,2.76,6.19,6.38,13.96,10.86,23.3,4.47,9.35,9.41,19.68,14.81,31,5.39,11.32,10.79,22.64,16.19,33.96,5.39,11.32,10.46,22.05,15.2,32.18,4.74,10.14,8.55,18.63,11.45,25.47.52,1.32,1.58,2.31,3.16,2.96,1.58.66,3.16.99,4.74.99v4.74h-65.55v-4.74ZM1170.74,147.23h-40.67l37.51-57.65h61.21l-58.05,57.65ZM1162.84,210.02l-32.38,69.1h65.55l-33.17-69.1Z"/>
    <path class="cls-2" d="M1336.59,180.8c0-2.89-.93-4.74-2.76-5.53-1.84-.79-3.82-1.31-5.92-1.58v-4.74h126.76c19.74,0,35.47,4.61,47.19,13.82,11.71,9.22,17.57,22.9,17.57,41.07,0,14.21-4.15,25.47-12.44,33.76-8.29,8.29-18.76,14.81-31.39,19.55l35.14,52.91c1.31,2.11,3.22,3.95,5.73,5.53,2.5,1.58,5.2,2.37,8.09,2.37v4.74h-79.77v-4.74c1.84,0,3.88-.33,6.12-.99,2.23-.65,3.36-2.04,3.36-4.15,0-1.31-1.38-4.6-4.15-9.87-2.76-5.26-5.92-10.92-9.48-16.98-3.55-6.05-6.98-11.85-10.27-17.37-3.29-5.53-5.33-9.08-6.12-10.66h-37.91v52.91c0,2.9.99,4.74,2.96,5.53,1.97.79,4.41,1.32,7.3,1.58v4.74h-67.92v-4.74c1.58-.26,3.29-.79,5.13-1.58,1.84-.79,2.76-2.63,2.76-5.53v-150.06ZM1442.41,244.77c8.42,0,15.07-1.78,19.94-5.33,4.87-3.55,7.31-8.88,7.31-15.99,0-6.05-2.04-11.12-6.12-15.2-4.08-4.08-12.04-6.12-23.89-6.12h-53.31v42.65h56.07Z"/>
    <path class="cls-2" d="M1582.59,180.8c0-2.89-1.12-4.74-3.36-5.53-2.24-.79-5.33-1.31-9.28-1.58v-4.74h118.86c11.85,0,21.98.59,30.41,1.78,8.42,1.18,15.26,3.36,20.53,6.52,5.26,3.16,9.14,7.57,11.65,13.23,2.5,5.66,3.75,12.83,3.75,21.52s-2.57,15.99-7.7,22.71c-5.13,6.71-11.25,11.79-18.36,15.2,10.66,3.42,18.72,8.36,24.19,14.81,5.46,6.45,8.19,15.6,8.19,27.44,0,15.54-5.54,27.84-16.62,36.92-11.08,9.08-29.15,13.62-54.22,13.62h-120.68v-4.74c3.95-.26,7.04-.79,9.28-1.58,2.23-.79,3.36-2.63,3.36-5.53v-150.06ZM1682.5,240.03c10.27,0,17.18-1.84,20.73-5.53,3.55-3.68,5.33-8.16,5.33-13.43,0-7.9-2.17-13.03-6.52-15.4s-10.86-3.55-19.55-3.55h-46.99v37.91h46.99ZM1678.55,309.53c9.21,0,16.98-1.58,23.3-4.74,6.32-3.16,9.48-8.69,9.48-16.58,0-5.26-.99-9.34-2.96-12.24-1.97-2.89-4.54-5-7.7-6.32-3.16-1.31-6.65-2.1-10.46-2.37-3.82-.26-7.7-.39-11.65-.39h-43.04v42.65h43.04Z"/>
    <path class="cls-2" d="M1961.68,337.96c.79,0,1.84-.13,3.16-.4,1.31-.26,1.97-1.31,1.97-3.16,0-1.05-.46-2.7-1.38-4.94-.93-2.23-1.97-4.67-3.16-7.31-1.18-2.63-2.44-5.26-3.75-7.9-1.32-2.63-2.37-4.87-3.16-6.71h-91.61c-.53,1.84-1.38,4.08-2.57,6.71-1.18,2.63-2.44,5.27-3.75,7.9-1.32,2.63-2.51,5.07-3.55,7.31-1.05,2.24-1.58,3.89-1.58,4.94,0,1.85.65,2.9,1.97,3.16,1.31.27,2.37.4,3.16.4v4.74h-59.23v-4.74c1.58,0,3.16-.33,4.74-.99,1.58-.65,2.63-1.64,3.16-2.96,7.9-18.42,15.92-36.66,24.09-54.69,8.16-18.03,15.46-34.35,21.92-48.97,6.45-14.61,11.78-26.72,15.99-36.33,4.21-9.61,6.32-15.07,6.32-16.39,0-2.37-1.71-3.68-5.13-3.95v-4.74h82.53v4.74c-3.42.26-5.13,1.58-5.13,3.95,0,.79,1.38,4.28,4.15,10.46,2.76,6.19,6.38,13.96,10.86,23.3,4.47,9.35,9.41,19.68,14.81,31,5.39,11.32,10.79,22.64,16.19,33.96,5.39,11.32,10.46,22.05,15.2,32.18,4.74,10.14,8.55,18.63,11.45,25.47.52,1.32,1.58,2.31,3.16,2.96,1.58.66,3.16.99,4.74.99v4.74h-65.55v-4.74ZM1908.76,210.02l-32.38,69.1h65.55l-33.17-69.1Z"/>
    <path class="cls-2" d="M2082.51,180.8c0-2.89-.93-4.74-2.76-5.53-1.84-.79-3.82-1.31-5.92-1.58v-4.74h126.76c19.74,0,35.47,4.61,47.19,13.82,11.71,9.22,17.57,22.9,17.57,41.07,0,14.21-4.15,25.47-12.44,33.76-8.29,8.29-18.76,14.81-31.39,19.55l35.14,52.91c1.31,2.11,3.22,3.95,5.73,5.53,2.5,1.58,5.2,2.37,8.09,2.37v4.74h-79.77v-4.74c1.84,0,3.88-.33,6.12-.99,2.23-.65,3.36-2.04,3.36-4.15,0-1.31-1.38-4.6-4.15-9.87-2.76-5.26-5.92-10.92-9.48-16.98-3.55-6.05-6.98-11.85-10.27-17.37-3.29-5.53-5.33-9.08-6.12-10.66h-37.91v52.91c0,2.9.99,4.74,2.96,5.53,1.97.79,4.41,1.32,7.3,1.58v4.74h-67.92v-4.74c1.58-.26,3.29-.79,5.13-1.58,1.84-.79,2.76-2.63,2.76-5.53v-150.06ZM2188.34,244.77c8.42,0,15.07-1.78,19.94-5.33,4.87-3.55,7.31-8.88,7.31-15.99,0-6.05-2.04-11.12-6.12-15.2-4.08-4.08-12.04-6.12-23.89-6.12h-53.31v42.65h56.07Z"/>
    <path class="cls-2" d="M2407.5,166.58c12.37,0,24.81,1.72,37.32,5.13,12.5,3.42,23.82,8.75,33.96,15.99,10.13,7.24,18.36,16.52,24.68,27.84,6.32,11.32,9.48,24.75,9.48,40.28s-3.16,29.29-9.48,40.48c-6.32,11.19-14.55,20.34-24.68,27.44-10.14,7.11-21.46,12.24-33.96,15.4-12.51,3.16-24.95,4.74-37.32,4.74s-24.82-1.58-37.32-4.74c-12.51-3.16-23.83-8.29-33.96-15.4-10.14-7.11-18.36-16.25-24.68-27.44-6.32-11.19-9.48-24.68-9.48-40.48s3.16-28.96,9.48-40.28c6.32-11.32,14.54-20.6,24.68-27.84,10.13-7.24,21.45-12.57,33.96-15.99,12.5-3.42,24.94-5.13,37.32-5.13ZM2407.5,208.44c-7.37,0-14.35,1.13-20.93,3.38-6.58,2.25-12.38,5.42-17.38,9.51-5,4.1-8.88,9.06-11.65,14.87-2.76,5.82-4.15,12.43-4.15,19.82s1.38,14.01,4.15,19.82c2.76,5.82,6.65,10.77,11.65,14.87,5,4.1,10.79,7.27,17.38,9.52,6.58,2.25,13.56,3.37,20.93,3.37s14.67-1.12,21.13-3.37c6.45-2.25,12.17-5.42,17.18-9.52,5-4.1,8.88-9.05,11.65-14.87,2.76-5.81,4.15-12.42,4.15-19.82s-1.38-14.01-4.15-19.82c-2.76-5.81-6.65-10.77-11.65-14.87-5-4.1-10.73-7.27-17.18-9.51-6.45-2.25-13.49-3.38-21.13-3.38Z"/>
  </g>
</svg>