<?xml version="1.0" encoding="UTF-8"?>
<svg id="Capa_1" data-name="Capa 1" xmlns="http://www.w3.org/2000/svg" viewBox="0 0 1229.61 410.96">
  <defs>
    <style>
      .cls-1 {
        fill: #000;
        stroke-width: 0px;
      }
    </style>
  </defs>
  <path class="cls-1" d="M273.73,269.54c0,13.13-4.01,24.39-12.03,33.81-8.02,9.42-19.1,15.71-33.24,18.89-11.19,2.54-21.74,4.02-31.65,4.45-9.92.42-39.04.63-87.36.63-6.76,0-10.76-.11-12.03-.32-1.27-.21-1.9-.95-1.9-2.22,0-1.9,3.43-2.85,10.29-2.85s11.13-1,12.82-3.01c1.69-2.01,2.53-6.92,2.53-14.74V122.85c0-6.13-4.92-9.3-14.74-9.51-7.48-.2-11.22-1.09-11.22-2.69,0-1.79,2.32-2.69,6.96-2.69h88.94c48.74,0,73.12,16.72,73.12,50.15,0,27.72-18.15,44.87-54.44,51.42l-.63,1.27c21.31,4.45,36.08,10.05,44.31,16.83,13.5,11.22,20.26,25.18,20.26,41.9ZM223.09,268.12c0-29.75-8.45-47.05-25.34-51.91-6.68-1.9-16.27-2.85-28.78-2.85v18.36c0,5.28-.21,12.77-.63,22.47-.21,4.86-.32,13.93-.32,27.22,0,22.79.63,34.93,1.9,36.4,1.69,2.32,6.43,3.48,14.24,3.48,25.96,0,38.93-17.73,38.93-53.18ZM217.08,159.87c0-30.59-9.31-45.9-27.94-45.9-6.62,0-11.07.32-13.34.95-4.55,1.48-6.83,4.75-6.83,9.81v83.56c18.42,0,31.04-3.27,37.87-9.81,6.83-6.54,10.24-19.41,10.24-38.62Z"/>
  <path class="cls-1" d="M433.58,309.93c0,1.72-1.69,4.07-5.06,7.07-9.08,8.36-20.26,12.53-33.55,12.53-8.65,0-14.93-1.82-18.83-5.45-3.91-3.63-6.49-10.15-7.75-19.55-9.5,17.3-22.47,25.95-38.93,25.95-9.08,0-16.41-2.85-22-8.55-5.59-5.7-8.39-13.08-8.39-22.16,0-26.59,22.79-42.31,68.37-47.16v-6.65c0-21.1-.74-34.08-2.22-38.93l-.32-1.58c-2.96-10.55-10.45-15.83-22.47-15.83-6.96,0-12.56,2.01-16.78,6.01-4.22,4.01-6.33,7.91-6.33,11.71,0,2.11,2.53,3.38,7.6,3.8,7.6.63,11.4,5.28,11.4,13.93,0,4.64-1.53,8.5-4.59,11.55s-7.02,4.59-11.87,4.59c-6.12,0-11.13-1.84-15.03-5.54-3.91-3.69-5.86-8.39-5.86-14.08,0-9.07,4.54-17.3,13.61-24.69,9.07-7.38,20.99-11.08,35.77-11.08,21.94,0,37.24,3.91,45.9,11.71,6.96,6.54,10.45,17.94,10.45,34.18v54.12c0,10.55.1,16.67.32,18.36,1.05,8.86,4.11,13.29,9.18,13.29,3.59,0,8.02-2.53,13.29-7.6,1.05-1.05,1.9-1.58,2.53-1.58,1.05,0,1.58.54,1.58,1.61ZM367.42,272.24v-15.51c-20.47,4.01-30.7,15.62-30.7,34.82,0,14.77,5.06,22.16,15.19,22.16,5.7,0,9.7-3.17,12.03-9.5,2.32-6.33,3.48-16.98,3.48-31.97ZM410.47,118.09l-2.85,2.53-12.34,11.08-34.82,31.02c-4.01,3.8-6.54,5.7-7.6,5.7-.85,0-1.27-.42-1.27-1.27,0-.63,3.37-9.39,10.13-26.27l.32-.95c2.32-5.91,5.06-13.19,8.23-21.84h40.2Z"/>
  <path class="cls-1" d="M552.27,209.56c0,6.12-1.8,11.13-5.38,15.04-3.59,3.91-8.23,5.86-13.93,5.86-11.39,0-17.09-5.27-17.09-15.83,0-3.58,1.37-7.17,4.11-10.76.63-.84.95-1.58.95-2.22,0-1.9-1.36-2.85-4.06-2.85-7.08,0-12.49,5.58-16.24,16.73-2.08,6.32-3.12,21.79-3.12,46.41v50.83c0,5.68,2.85,8.73,8.55,9.15,3.37.21,7.38.32,12.03.32,2.32.21,3.48.95,3.48,2.22,0,1.69-.95,2.53-2.85,2.53h-33.87c.84,0-3.91,0-14.24,0h-34.82c-2.32,0-3.48-.68-3.48-2.06s1.47-2.06,4.43-2.06c8.65-.21,13.87-1.1,15.67-2.68,1.79-1.58,2.69-6.26,2.69-14.05l-.32-85.24c0-7.16-1-12.1-3.01-14.84-2.01-2.74-6.49-4.42-13.45-5.05-5.49-.4-8.6-.69-9.34-.89-.74-.2-1.11-.89-1.11-2.08s.84-1.78,2.53-1.78h11.71c16.25,0,33.76-3.37,52.54-10.13,1.05,4.22,1.58,9.08,1.58,14.56v13.29c4.01-10.22,8.39-17.42,13.14-21.59s10.92-6.26,18.52-6.26c7.17,0,13.03,2.22,17.57,6.65,4.54,4.43,6.81,10.02,6.81,16.78Z"/>
  <path class="cls-1" d="M711.16,254.19c0,26.59-10.55,47.16-31.65,61.72-14.56,9.92-29.75,14.88-45.58,14.88-5.91,0-14.46-1.9-25.64-5.7-5.91-2.11-10.45-3.17-13.61-3.17-5.7,0-11.5,2.11-17.41,6.33-1.27.84-2.22,1.27-2.85,1.27-1.48,0-2.32-.63-2.53-1.9-.21-1.27-.32-5.06-.32-11.39v-185.8c0-5.48-.99-9.07-2.97-10.76-1.98-1.69-6.3-2.53-12.97-2.53-5.62,0-8.44-.74-8.44-2.22s1.29-2.22,3.85-2.22c23.97,0,44.84-2.64,62.61-7.91l.32,5.06v93.38c8.41-11.6,20.08-17.41,35.02-17.41,18.09,0,32.97,6.38,44.64,19.15,11.67,12.77,17.51,29.17,17.51,49.22ZM664,255.46c0-40.94-8.55-61.41-25.64-61.41-9.5,0-16.46,4.43-20.89,13.29-1.69,3.38-2.69,7.33-3.01,11.87-.32,4.54-.47,17.46-.47,38.77v19.31c0,19.84,1.32,32.97,3.96,39.41,2.64,6.44,7.96,9.65,15.99,9.65,10.97,0,18.72-5.38,23.26-16.14,4.54-10.76,6.81-29.01,6.81-54.76Z"/>
  <path class="cls-1" d="M865.94,309.93c0,1.72-1.69,4.07-5.06,7.07-9.08,8.36-20.26,12.53-33.55,12.53-8.65,0-14.93-1.82-18.83-5.45-3.91-3.63-6.49-10.15-7.75-19.55-9.5,17.3-22.47,25.95-38.93,25.95-9.08,0-16.41-2.85-22-8.55-5.59-5.7-8.39-13.08-8.39-22.16,0-26.59,22.79-42.31,68.37-47.16v-6.65c0-21.1-.74-34.08-2.22-38.93l-.32-1.58c-2.96-10.55-10.45-15.83-22.47-15.83-6.96,0-12.56,2.01-16.78,6.01-4.22,4.01-6.33,7.91-6.33,11.71,0,2.11,2.53,3.38,7.6,3.8,7.6.63,11.4,5.28,11.4,13.93,0,4.64-1.53,8.5-4.59,11.55s-7.02,4.59-11.87,4.59c-6.12,0-11.13-1.84-15.03-5.54-3.91-3.69-5.86-8.39-5.86-14.08,0-9.07,4.54-17.3,13.61-24.69,9.07-7.38,20.99-11.08,35.77-11.08,21.94,0,37.24,3.91,45.9,11.71,6.96,6.54,10.45,17.94,10.45,34.18v54.12c0,10.55.1,16.67.32,18.36,1.05,8.86,4.11,13.29,9.18,13.29,3.59,0,8.02-2.53,13.29-7.6,1.05-1.05,1.9-1.58,2.53-1.58,1.05,0,1.58.54,1.58,1.61ZM799.79,272.24v-15.51c-20.47,4.01-30.7,15.62-30.7,34.82,0,14.77,5.06,22.16,15.19,22.16,5.7,0,9.7-3.17,12.03-9.5,2.32-6.33,3.48-16.98,3.48-31.97Z"/>
  <path class="cls-1" d="M984.63,209.56c0,6.12-1.8,11.13-5.38,15.04-3.59,3.91-8.23,5.86-13.93,5.86-11.39,0-17.09-5.27-17.09-15.83,0-3.58,1.37-7.17,4.11-10.76.63-.84.95-1.58.95-2.22,0-1.9-1.36-2.85-4.06-2.85-7.08,0-12.49,5.58-16.24,16.73-2.08,6.32-3.12,21.79-3.12,46.41v50.83c0,5.68,2.85,8.73,8.55,9.15,3.37.21,7.38.32,12.03.32,2.32.21,3.48.95,3.48,2.22,0,1.69-.95,2.53-2.85,2.53h-33.87c.84,0-3.91,0-14.24,0h-34.82c-2.32,0-3.48-.68-3.48-2.06s1.47-2.06,4.43-2.06c8.65-.21,13.87-1.1,15.67-2.68,1.79-1.58,2.69-6.26,2.69-14.05l-.32-85.24c0-7.16-1-12.1-3.01-14.84-2.01-2.74-6.49-4.42-13.45-5.05-5.49-.4-8.6-.69-9.34-.89-.74-.2-1.11-.89-1.11-2.08s.84-1.78,2.53-1.78h11.71c16.25,0,33.76-3.37,52.54-10.13,1.05,4.22,1.58,9.08,1.58,14.56v13.29c4.01-10.22,8.39-17.42,13.14-21.59s10.92-6.26,18.52-6.26c7.17,0,13.03,2.22,17.57,6.65,4.54,4.43,6.81,10.02,6.81,16.78Z"/>
  <path class="cls-1" d="M1139.41,259.57c0,22.58-8.86,40.83-26.59,54.76-13.93,10.97-29.23,16.46-45.9,16.46-19.84,0-36.98-7.12-51.44-21.37-14.46-14.24-21.68-31.07-21.68-50.49s7.23-37.51,21.68-51.75c14.45-14.24,31.92-21.37,52.38-21.37s36.45,7.23,50.49,21.68c14.03,14.46,21.05,31.81,21.05,52.07ZM1091.61,259.89c0-26.16-1.79-44.1-5.35-53.81-3.99-10.76-10.39-16.14-19.19-16.14-8.18,0-14.58,5.65-19.19,16.93-4.61,11.29-6.92,26.86-6.92,46.69,0,27.65,2.72,47.27,8.18,58.87,4.4,9.29,10.58,13.93,18.56,13.93,9.86,0,16.36-5.91,19.51-17.73,2.93-11.18,4.4-27.43,4.4-48.74Z"/>
</svg>