<?xml version="1.0" encoding="UTF-8"?>
<svg id="Capa_1" data-name="Capa 1" xmlns="http://www.w3.org/2000/svg" version="1.1" viewBox="0 0 1985.3 896.8">
  <defs>
    <style>
      .cls-2 {
        fill: #f5bc42;
        stroke-width: 0px;
      }
    </style>
  </defs>
  <path class="cls-2" d="M1315.9,208.8c-1.3,16.9-3.9,34-9.7,49.9-10.1,27.9-25.8,52.1-47.9,72.1-25.3,23-55,36.8-88.8,42-11.8,1.8-23.6,3.1-35.5,4-12.7,1-25.3,0-37.8-2-10.8-1.7-21.2-5-31.4-8.8-18.1-6.8-35.1-15.8-50.4-27.7-9.2-7.2-17.2-15.5-21.4-26.8-.1-.3-.5-.6-.9-1-.3.4-.6.6-.7.8-3.3,9.2-9.3,16.5-16.5,22.8-14,12.3-30,21.2-47,28.5-21.7,9.4-44.4,14.9-68.1,14.2-12.7-.3-25.4-1.6-38.1-3.2-15.5-1.9-30.6-5.5-45.1-11.4-20.4-8.3-38.6-20-54.3-35.3-17.8-17.3-31.4-37.5-40.8-60.5-4-9.6-6.9-19.7-8.9-29.9-1.1-5.9-1.8-11.9-2.5-17.9-.5-4.4-1.2-8.7-1.3-13.1,0-2.1-.3-4.4.6-6.3.2-.4.4-.8.8-1.1,1-.7,2.4-.2,3.4.5,3,2.2,3.7,5.8,4.6,9.2,3.3,13.1,9.5,24.3,19.6,33.5,13.4,12.2,29.1,16,46.6,13.4,13.1-1.9,25-7.4,36.3-14.1,17.9-10.7,33.7-24.1,49.8-37.2,11.8-9.6,23.6-19.3,36.9-26.9,17.4-9.9,35.7-16.1,56-13,10.5,1.6,20.6,4.8,29.5,11,14.3,10,26.4,22.4,38,35.3.4.5.6,1.2.9,1.6.9-.5,1.1-.6,1.3-.7,5.9-6.1,11.7-12.3,17.7-18.4,7.6-7.7,15.6-15.1,25.2-20.4,21.6-11.7,43.9-12.1,66.5-2.9,15.7,6.4,29.2,16.2,42.4,26.6,15.2,12,30.1,24.2,45.6,35.8,13.5,10.2,28.3,18.2,45,22.2,10.6,2.5,21.3,2.6,31.8-.9,15.6-5.2,26.8-15.7,33.9-30.3,3.1-6.4,4.8-13.4,7.2-20.2.7-2,1.8-4.5,4.3-4.4,3.2.2,4,2.1,3.8,5-.1,1.8-.2,3.6-.4,5.4h0Z"/>
  <g>
    <path class="cls-2" d="M160.8,581.9c0-2.9-1.1-4.7-3.4-5.5s-5.3-1.3-9.3-1.6v-4.7h118.9c11.8,0,22,.6,30.4,1.8,8.4,1.2,15.3,3.4,20.5,6.5,5.3,3.2,9.1,7.6,11.7,13.2,2.5,5.7,3.8,12.8,3.8,21.5s-2.6,16-7.7,22.7c-5.1,6.7-11.2,11.8-18.4,15.2,10.7,3.4,18.7,8.4,24.2,14.8,5.5,6.5,8.2,15.6,8.2,27.4s-5.5,27.8-16.6,36.9c-11.1,9.1-29.2,13.6-54.2,13.6h-120.7v-4.7c4-.3,7-.8,9.3-1.6,2.2-.8,3.4-2.6,3.4-5.5v-150.1h0ZM260.7,641.1c10.3,0,17.2-1.8,20.7-5.5,3.5-3.7,5.3-8.2,5.3-13.4,0-7.9-2.2-13-6.5-15.4s-10.9-3.6-19.5-3.6h-47v37.9h47ZM256.8,710.6c9.2,0,17-1.6,23.3-4.7s9.5-8.7,9.5-16.6-1-9.3-3-12.2c-2-2.9-4.5-5-7.7-6.3-3.2-1.3-6.7-2.1-10.5-2.4-3.8-.3-7.7-.4-11.7-.4h-43v42.6h43,0Z"/>
    <path class="cls-2" d="M539.9,739c.8,0,1.8-.1,3.2-.4,1.3-.3,2-1.3,2-3.2s-.5-2.7-1.4-4.9c-.9-2.2-2-4.7-3.2-7.3-1.2-2.6-2.4-5.3-3.8-7.9-1.3-2.6-2.4-4.9-3.2-6.7h-91.6c-.5,1.8-1.4,4.1-2.6,6.7-1.2,2.6-2.4,5.3-3.8,7.9-1.3,2.6-2.5,5.1-3.6,7.3-1.1,2.2-1.6,3.9-1.6,4.9,0,1.9.7,2.9,2,3.2,1.3.3,2.4.4,3.2.4v4.7h-59.2v-4.7c1.6,0,3.2-.3,4.7-1,1.6-.6,2.6-1.6,3.2-3,7.9-18.4,15.9-36.7,24.1-54.7,8.2-18,15.5-34.4,21.9-49,6.4-14.6,11.8-26.7,16-36.3s6.3-15.1,6.3-16.4c0-2.4-1.7-3.7-5.1-3.9v-4.7h82.5v4.7c-3.4.3-5.1,1.6-5.1,3.9s1.4,4.3,4.2,10.5c2.8,6.2,6.4,14,10.9,23.3,4.5,9.4,9.4,19.7,14.8,31,5.4,11.3,10.8,22.6,16.2,34,5.4,11.3,10.5,22,15.2,32.2,4.7,10.1,8.6,18.6,11.4,25.5.5,1.3,1.6,2.3,3.2,3,1.6.7,3.2,1,4.7,1v4.7h-65.6v-4.7h0ZM494.9,548.3h-40.7l37.5-57.7h61.2l-58.1,57.7h0ZM487,611.1l-32.4,69.1h65.6l-33.2-69.1h0Z"/>
    <path class="cls-2" d="M660.7,581.9c0-2.9-.9-4.7-2.8-5.5-1.8-.8-3.8-1.3-5.9-1.6v-4.7h126.8c19.7,0,35.5,4.6,47.2,13.8,11.7,9.2,17.6,22.9,17.6,41.1s-4.2,25.5-12.4,33.8c-8.3,8.3-18.8,14.8-31.4,19.5l35.1,52.9c1.3,2.1,3.2,4,5.7,5.5,2.5,1.6,5.2,2.4,8.1,2.4v4.7h-79.8v-4.7c1.8,0,3.9-.3,6.1-1,2.2-.6,3.4-2,3.4-4.1s-1.4-4.6-4.2-9.9c-2.8-5.3-5.9-10.9-9.5-17-3.6-6-7-11.9-10.3-17.4-3.3-5.5-5.3-9.1-6.1-10.7h-37.9v52.9c0,2.9,1,4.7,3,5.5s4.4,1.3,7.3,1.6v4.7h-67.9v-4.7c1.6-.3,3.3-.8,5.1-1.6,1.8-.8,2.8-2.6,2.8-5.5v-150.1h0ZM766.6,645.8c8.4,0,15.1-1.8,19.9-5.3s7.3-8.9,7.3-16-2-11.1-6.1-15.2-12-6.1-23.9-6.1h-53.3v42.6h56.1Z"/>
    <path class="cls-2" d="M906.7,581.9c0-2.9-1.1-4.7-3.4-5.5s-5.3-1.3-9.3-1.6v-4.7h118.9c11.8,0,22,.6,30.4,1.8,8.4,1.2,15.3,3.4,20.5,6.5,5.3,3.2,9.1,7.6,11.7,13.2,2.5,5.7,3.8,12.8,3.8,21.5s-2.6,16-7.7,22.7c-5.1,6.7-11.2,11.8-18.4,15.2,10.7,3.4,18.7,8.4,24.2,14.8,5.5,6.5,8.2,15.6,8.2,27.4s-5.5,27.8-16.6,36.9c-11.1,9.1-29.2,13.6-54.2,13.6h-120.7v-4.7c3.9-.3,7-.8,9.3-1.6,2.2-.8,3.4-2.6,3.4-5.5v-150.1h0ZM1006.7,641.1c10.3,0,17.2-1.8,20.7-5.5,3.6-3.7,5.3-8.2,5.3-13.4,0-7.9-2.2-13-6.5-15.4s-10.9-3.6-19.6-3.6h-47v37.9h47ZM1002.7,710.6c9.2,0,17-1.6,23.3-4.7,6.3-3.2,9.5-8.7,9.5-16.6s-1-9.3-3-12.2c-2-2.9-4.5-5-7.7-6.3-3.2-1.3-6.7-2.1-10.5-2.4-3.8-.3-7.7-.4-11.7-.4h-43v42.6h43,0Z"/>
    <path class="cls-2" d="M1285.8,739c.8,0,1.8-.1,3.2-.4,1.3-.3,2-1.3,2-3.2s-.5-2.7-1.4-4.9c-.9-2.2-2-4.7-3.2-7.3-1.2-2.6-2.4-5.3-3.8-7.9-1.3-2.6-2.4-4.9-3.2-6.7h-91.6c-.5,1.8-1.4,4.1-2.6,6.7-1.2,2.6-2.4,5.3-3.8,7.9-1.3,2.6-2.5,5.1-3.6,7.3-1.1,2.2-1.6,3.9-1.6,4.9,0,1.9.7,2.9,2,3.2,1.3.3,2.4.4,3.2.4v4.7h-59.2v-4.7c1.6,0,3.2-.3,4.7-1,1.6-.6,2.6-1.6,3.2-3,7.9-18.4,15.9-36.7,24.1-54.7,8.2-18,15.5-34.4,21.9-49,6.4-14.6,11.8-26.7,16-36.3s6.3-15.1,6.3-16.4c0-2.4-1.7-3.7-5.1-3.9v-4.7h82.5v4.7c-3.4.3-5.1,1.6-5.1,3.9s1.4,4.3,4.2,10.5c2.8,6.2,6.4,14,10.9,23.3,4.5,9.4,9.4,19.7,14.8,31,5.4,11.3,10.8,22.6,16.2,34,5.4,11.3,10.5,22,15.2,32.2,4.7,10.1,8.6,18.6,11.4,25.5.5,1.3,1.6,2.3,3.2,3,1.6.7,3.2,1,4.7,1v4.7h-65.6v-4.7h0ZM1232.9,611.1l-32.4,69.1h65.6l-33.2-69.1h0Z"/>
    <path class="cls-2" d="M1406.7,581.9c0-2.9-.9-4.7-2.8-5.5-1.8-.8-3.8-1.3-5.9-1.6v-4.7h126.8c19.7,0,35.5,4.6,47.2,13.8,11.7,9.2,17.6,22.9,17.6,41.1s-4.1,25.5-12.4,33.8-18.8,14.8-31.4,19.5l35.1,52.9c1.3,2.1,3.2,4,5.7,5.5,2.5,1.6,5.2,2.4,8.1,2.4v4.7h-79.8v-4.7c1.8,0,3.9-.3,6.1-1,2.2-.6,3.4-2,3.4-4.1s-1.4-4.6-4.1-9.9c-2.8-5.3-5.9-10.9-9.5-17-3.6-6-7-11.9-10.3-17.4-3.3-5.5-5.3-9.1-6.1-10.7h-37.9v52.9c0,2.9,1,4.7,3,5.5s4.4,1.3,7.3,1.6v4.7h-67.9v-4.7c1.6-.3,3.3-.8,5.1-1.6,1.8-.8,2.8-2.6,2.8-5.5v-150.1h0ZM1512.5,645.8c8.4,0,15.1-1.8,19.9-5.3,4.9-3.6,7.3-8.9,7.3-16s-2-11.1-6.1-15.2-12-6.1-23.9-6.1h-53.3v42.6h56.1Z"/>
    <path class="cls-2" d="M1731.7,567.6c12.4,0,24.8,1.7,37.3,5.1,12.5,3.4,23.8,8.8,34,16,10.1,7.2,18.4,16.5,24.7,27.8,6.3,11.3,9.5,24.8,9.5,40.3s-3.2,29.3-9.5,40.5-14.6,20.3-24.7,27.4c-10.1,7.1-21.5,12.2-34,15.4-12.5,3.2-24.9,4.7-37.3,4.7s-24.8-1.6-37.3-4.7c-12.5-3.2-23.8-8.3-34-15.4-10.1-7.1-18.4-16.2-24.7-27.4-6.3-11.2-9.5-24.7-9.5-40.5s3.2-29,9.5-40.3,14.5-20.6,24.7-27.8c10.1-7.2,21.4-12.6,34-16,12.5-3.4,24.9-5.1,37.3-5.1h0ZM1731.7,609.5c-7.4,0-14.4,1.1-20.9,3.4-6.6,2.2-12.4,5.4-17.4,9.5-5,4.1-8.9,9.1-11.6,14.9-2.8,5.8-4.1,12.4-4.1,19.8s1.4,14,4.1,19.8c2.8,5.8,6.6,10.8,11.6,14.9s10.8,7.3,17.4,9.5c6.6,2.2,13.6,3.4,20.9,3.4s14.7-1.1,21.1-3.4c6.4-2.2,12.2-5.4,17.2-9.5,5-4.1,8.9-9,11.6-14.9,2.8-5.8,4.1-12.4,4.1-19.8s-1.4-14-4.1-19.8c-2.8-5.8-6.6-10.8-11.6-14.9-5-4.1-10.7-7.3-17.2-9.5-6.4-2.2-13.5-3.4-21.1-3.4h0Z"/>
  </g>
</svg>