<?xml version="1.0" encoding="UTF-8"?>
<svg id="Capa_1" data-name="Capa 1" xmlns="http://www.w3.org/2000/svg" viewBox="0 0 708.66 283.46">
  <defs>
    <style>
      .cls-2 {
        fill: #f5bc42;
        stroke-width: 0px;
      }
    </style>
  </defs>
  <path class="cls-2" d="M677.29,69.53c-1.31,16.88-3.89,34.01-9.65,49.91-10.06,27.91-25.85,52.11-47.86,72.14-25.31,23.03-55.04,36.83-88.75,41.97-11.76,1.79-23.61,3.06-35.47,4-12.65,1.01-25.3.06-37.83-1.96-10.81-1.74-21.19-4.99-31.43-8.8-18.15-6.76-35.06-15.8-50.36-27.68-9.24-7.18-17.17-15.54-21.37-26.81-.12-.33-.49-.58-.85-.97-.31.36-.61.56-.71.83-3.33,9.18-9.29,16.49-16.51,22.83-13.98,12.27-30.01,21.19-46.99,28.55-21.74,9.42-44.39,14.86-68.14,14.25-12.71-.33-25.43-1.64-38.05-3.22-15.47-1.94-30.6-5.47-45.14-11.36-20.42-8.27-38.58-19.95-54.34-35.29-17.78-17.3-31.36-37.48-40.8-60.46-3.96-9.64-6.95-19.67-8.91-29.9-1.14-5.93-1.85-11.87-2.51-17.85-.48-4.37-1.15-8.74-1.3-13.14-.07-2.08-.27-4.38.6-6.32.19-.41.43-.82.8-1.08.98-.71,2.38-.2,3.36.52,3.01,2.23,3.72,5.75,4.58,9.17,3.28,13.09,9.5,24.34,19.61,33.53,13.4,12.19,29.11,16,46.55,13.44,13.11-1.92,25.02-7.41,36.31-14.15,17.88-10.66,33.7-24.11,49.79-37.19,11.82-9.62,23.62-19.29,36.94-26.86,17.39-9.87,35.67-16.14,56.04-12.96,10.53,1.64,20.59,4.83,29.45,11.03,14.29,10.01,26.36,22.42,38,35.28.43.48.64,1.16.88,1.6.86-.47,1.12-.55,1.28-.71,5.89-6.12,11.69-12.32,17.66-18.35,7.64-7.71,15.6-15.15,25.19-20.35,21.61-11.72,43.88-12.1,66.48-2.89,15.68,6.39,29.22,16.2,42.39,26.61,15.15,11.98,30.14,24.19,45.57,35.8,13.52,10.17,28.31,18.19,44.95,22.17,10.64,2.54,21.35,2.64,31.81-.85,15.6-5.21,26.76-15.74,33.87-30.31,3.11-6.38,4.8-13.44,7.16-20.19.71-2.03,1.76-4.53,4.29-4.39,3.16.17,4.01,2.1,3.82,5-.11,1.8-.24,3.6-.38,5.41Z"/>
</svg>